M48
;Layer_Color=9474304
;FILE_FORMAT=2:3
INCH
;TYPE=PLATED
T1F00S00C0.032
T2F00S00C0.036
T3F00S00C0.043
T4F00S00C0.047
%
T01
X01165Y00875
Y00975
T02
X01160Y00425
Y00526
Y00624
Y00725
X00175Y00726
Y00824
Y00625
X00170Y00424
Y00326
Y00225
T03
X00935Y00225
Y00325
Y00425
Y00525
Y00625
Y00725
Y00825
Y00925
X00435
Y00825
Y00725
Y00625
Y00525
Y00425
Y00325
Y00225
T04
X01135Y00155
X01335
M30
