M48
;Layer_Color=9474304
;FILE_FORMAT=2:4
INCH
;TYPE=PLATED
T1F00S00C0.0320
T2F00S00C0.0360
T3F00S00C0.0433
T4F00S00C0.0472
%
T01
X011650Y008750
Y009750
T02
X011600Y004250
Y005260
Y006240
Y007250
X001750Y007260
Y008240
Y006250
X001700Y004240
Y003260
Y002250
T03
X009350Y002250
Y003250
Y004250
Y005250
Y006250
Y007250
Y008250
Y009250
X004350
Y008250
Y007250
Y006250
Y005250
Y004250
Y003250
Y002250
T04
X011350Y001550
X013350
M30
