M48
;Layer_Color=9474304
;FILE_FORMAT=2:5
INCH
;TYPE=PLATED
T1F00S00C0.03200
T2F00S00C0.03600
T3F00S00C0.04331
T4F00S00C0.04724
%
T01
X0116500Y0087500
Y0097500
T02
X0116000Y0042500
Y0052600
Y0062400
Y0072500
X0017500Y0072600
Y0082400
Y0062500
X0017000Y0042400
Y0032600
Y0022500
T03
X0093500Y0022500
Y0032500
Y0042500
Y0052500
Y0062500
Y0072500
Y0082500
Y0092500
X0043500
Y0082500
Y0072500
Y0062500
Y0052500
Y0042500
Y0032500
Y0022500
T04
X0113500Y0015500
X0133500
M30
