M48
;Layer_Color=9474304
;FILE_FORMAT=4:2
METRIC
;TYPE=PLATED
T1F00S00C0.81
T2F00S00C0.91
T3F00S00C1.10
T4F00S00C1.20
%
T01
X002959Y002223
Y002476
T02
X002946Y001080
Y001336
Y001585
Y001842
X000445Y001844
Y002093
Y001588
X000432Y001077
Y000828
Y000572
T03
X002375Y000572
Y000826
Y001080
Y001334
Y001588
Y001842
Y002095
Y002350
X001105
Y002095
Y001842
Y001588
Y001334
Y001080
Y000826
Y000572
T04
X002883Y000394
X003391
M30
