M48
;Layer_Color=9474304
;FILE_FORMAT=4:3
METRIC
;TYPE=PLATED
T1F00S00C0.813
T2F00S00C0.914
T3F00S00C1.100
T4F00S00C1.200
%
T01
X0029591Y0022225
Y0024765
T02
X0029464Y0010795
Y0013360
Y0015850
Y0018415
X0004445Y0018440
Y0020930
Y0015875
X0004318Y0010770
Y0008280
Y0005715
T03
X0023749Y0005715
Y0008255
Y0010795
Y0013335
Y0015875
Y0018415
Y0020955
Y0023495
X0011049
Y0020955
Y0018415
Y0015875
Y0013335
Y0010795
Y0008255
Y0005715
T04
X0028829Y0003937
X0033909
M30
