M48
;Layer_Color=9474304
;FILE_FORMAT=4:4
METRIC
;TYPE=PLATED
T1F00S00C0.8128
T2F00S00C0.9144
T3F00S00C1.1000
T4F00S00C1.2000
%
T01
X00295910Y00222250
Y00247650
T02
X00294640Y00107950
Y00133604
Y00158496
Y00184150
X00044450Y00184404
Y00209296
Y00158750
X00043180Y00107696
Y00082804
Y00057150
T03
X00237490Y00057150
Y00082550
Y00107950
Y00133350
Y00158750
Y00184150
Y00209550
Y00234950
X00110490
Y00209550
Y00184150
Y00158750
Y00133350
Y00107950
Y00082550
Y00057150
T04
X00288290Y00039370
X00339090
M30
