G04 Layer_Physical_Order=2*
G04 Layer_Color=16711680*
%FSAX42Y42*%
%MOMM*%
G71*
G01*
G75*
%ADD10C,0.25*%
%ADD11C,0.64*%
%ADD12C,1.27*%
%ADD13C,1.65*%
%ADD14R,1.65X1.65*%
%ADD15R,2.54X1.78*%
%ADD16O,2.54X1.78*%
%ADD17R,2.00X2.50*%
%ADD18O,1.91X1.65*%
%ADD19R,1.91X1.65*%
G36*
X002160Y002668D02*
X002159Y002667D01*
Y002197D01*
X002731D01*
Y002311D01*
X003111D01*
Y001994D01*
X002159D01*
Y000648D01*
X003111D01*
Y000076D01*
X001334D01*
Y002235D01*
X000699D01*
Y002680D01*
X002155D01*
X002160Y002668D01*
D02*
G37*
D10*
X000000Y002781D02*
X003886D01*
Y000000D02*
Y002781D01*
X000000Y000000D02*
X003886D01*
X000000D02*
Y002781D01*
X001245Y000292D02*
X001143D01*
X001194D01*
Y000140D01*
X001016D02*
X001067D01*
X001092Y000165D01*
Y000216D01*
X001067Y000241D01*
X001016D01*
X000991Y000216D01*
Y000190D01*
X001092D01*
X000940Y000140D02*
X000864D01*
X000838Y000165D01*
X000864Y000190D01*
X000915D01*
X000940Y000216D01*
X000915Y000241D01*
X000838D01*
X000762Y000267D02*
Y000241D01*
X000788D01*
X000737D01*
X000762D01*
Y000165D01*
X000737Y000140D01*
X000508Y000292D02*
Y000140D01*
X000432D01*
X000407Y000165D01*
Y000267D01*
X000432Y000292D01*
X000508D01*
X000356Y000140D02*
Y000292D01*
X000280D01*
X000254Y000267D01*
Y000216D01*
X000280Y000190D01*
X000356D01*
X000305D02*
X000254Y000140D01*
X000204Y000292D02*
Y000190D01*
X000153Y000140D01*
X000102Y000190D01*
Y000292D01*
D11*
X002007Y000572D02*
X002375D01*
X002007D02*
Y002095D01*
X001816D02*
X002007D01*
X002375D01*
X000432Y000572D02*
X001105D01*
X001102Y000828D02*
X001105Y000826D01*
X000432Y000828D02*
X001102D01*
X001105Y001080D02*
Y001334D01*
X001102Y001077D02*
X001105Y001080D01*
X000432Y001077D02*
X001102D01*
X000445Y001588D02*
X001105D01*
X000445Y001844D02*
X000447Y001842D01*
X001105D01*
X001102Y002093D02*
X001105Y002095D01*
X000445Y002093D02*
X001102D01*
X001562Y002350D02*
X001816Y002095D01*
X001105Y002350D02*
X001562D01*
X002832Y002095D02*
X002959Y002223D01*
X002375Y002095D02*
X002832D01*
X002553Y000394D02*
X002883D01*
X002375Y000572D02*
X002553Y000394D01*
X002375Y001080D02*
X002946D01*
X002375Y001334D02*
X002944D01*
X002375Y001588D02*
X002944D01*
X002375Y001842D02*
X002946D01*
D12*
X002502Y002476D02*
X002959D01*
X002375Y002350D02*
X002502Y002476D01*
X002959D02*
X003162D01*
X003391Y002248D01*
Y000394D02*
Y002248D01*
D13*
X001105Y001588D02*
D03*
X002375D02*
D03*
X001105Y001334D02*
D03*
Y001080D02*
D03*
Y000826D02*
D03*
Y000572D02*
D03*
Y001842D02*
D03*
Y002095D02*
D03*
X002375Y001842D02*
D03*
Y002095D02*
D03*
Y002350D02*
D03*
Y001334D02*
D03*
Y001080D02*
D03*
Y000826D02*
D03*
Y000572D02*
D03*
D14*
X001105Y002350D02*
D03*
D15*
X002959Y002476D02*
D03*
D16*
Y002223D02*
D03*
D17*
X003391Y000394D02*
D03*
X002883D02*
D03*
D18*
X000432Y001077D02*
D03*
Y000828D02*
D03*
X002946Y001842D02*
D03*
Y001585D02*
D03*
Y001336D02*
D03*
Y001080D02*
D03*
X000445Y002093D02*
D03*
Y001844D02*
D03*
D19*
X000432Y000572D02*
D03*
X000445Y001588D02*
D03*
M02*
