G04 Layer_Physical_Order=2*
G04 Layer_Color=16711680*
%FSLAX42Y42*%
%MOMM*%
%TF.FileFunction,Copper,L2,Bot,Signal*%
%TF.Part,Single*%
G01*
G75*
%TA.AperFunction,NonConductor*%
%ADD10C,0.25*%
%TA.AperFunction,Conductor*%
%ADD11C,0.64*%
%ADD12C,1.27*%
%TA.AperFunction,ComponentPad*%
%ADD13C,1.65*%
%ADD14R,1.65X1.65*%
%ADD15R,2.54X1.78*%
%ADD16O,2.54X1.78*%
%ADD17R,2.00X2.50*%
%ADD18O,1.91X1.65*%
%ADD19R,1.91X1.65*%
G36*
X2160Y2668D02*
X2159Y2667D01*
Y2197D01*
X2731D01*
Y2311D01*
X3111D01*
Y1994D01*
X2159D01*
Y648D01*
X3111D01*
Y76D01*
X1334D01*
Y2235D01*
X699D01*
Y2680D01*
X2155D01*
X2160Y2668D01*
D02*
G37*
D10*
X0Y2781D02*
X3886D01*
Y0D02*
Y2781D01*
X0Y0D02*
X3886D01*
X0D02*
Y2781D01*
X1245Y292D02*
X1143D01*
X1194D01*
Y140D01*
X1016D02*
X1067D01*
X1092Y165D01*
Y216D01*
X1067Y241D01*
X1016D01*
X991Y216D01*
Y190D01*
X1092D01*
X940Y140D02*
X864D01*
X838Y165D01*
X864Y190D01*
X915D01*
X940Y216D01*
X915Y241D01*
X838D01*
X762Y267D02*
Y241D01*
X788D01*
X737D01*
X762D01*
Y165D01*
X737Y140D01*
X508Y292D02*
Y140D01*
X432D01*
X407Y165D01*
Y267D01*
X432Y292D01*
X508D01*
X356Y140D02*
Y292D01*
X280D01*
X254Y267D01*
Y216D01*
X280Y190D01*
X356D01*
X305D02*
X254Y140D01*
X204Y292D02*
Y190D01*
X153Y140D01*
X102Y190D01*
Y292D01*
D11*
X2007Y572D02*
X2375D01*
X2007D02*
Y2095D01*
X1816D02*
X2007D01*
X2375D01*
X432Y572D02*
X1105D01*
X1102Y828D02*
X1105Y826D01*
X432Y828D02*
X1102D01*
X1105Y1080D02*
Y1334D01*
X1102Y1077D02*
X1105Y1080D01*
X432Y1077D02*
X1102D01*
X445Y1588D02*
X1105D01*
X445Y1844D02*
X447Y1842D01*
X1105D01*
X1102Y2093D02*
X1105Y2095D01*
X445Y2093D02*
X1102D01*
X1562Y2350D02*
X1816Y2095D01*
X1105Y2350D02*
X1562D01*
X2832Y2095D02*
X2959Y2223D01*
X2375Y2095D02*
X2832D01*
X2553Y394D02*
X2883D01*
X2375Y572D02*
X2553Y394D01*
X2375Y1080D02*
X2946D01*
X2375Y1334D02*
X2944D01*
X2375Y1588D02*
X2944D01*
X2375Y1842D02*
X2946D01*
D12*
X2502Y2476D02*
X2959D01*
X2375Y2350D02*
X2502Y2476D01*
X2959D02*
X3162D01*
X3391Y2248D01*
Y394D02*
Y2248D01*
D13*
X1105Y1588D02*
D03*
X2375D02*
D03*
X1105Y1334D02*
D03*
Y1080D02*
D03*
Y826D02*
D03*
Y572D02*
D03*
Y1842D02*
D03*
Y2095D02*
D03*
X2375Y1842D02*
D03*
Y2095D02*
D03*
Y2350D02*
D03*
Y1334D02*
D03*
Y1080D02*
D03*
Y826D02*
D03*
Y572D02*
D03*
D14*
X1105Y2350D02*
D03*
D15*
X2959Y2476D02*
D03*
D16*
Y2223D02*
D03*
D17*
X3391Y394D02*
D03*
X2883D02*
D03*
D18*
X432Y1077D02*
D03*
Y828D02*
D03*
X2946Y1842D02*
D03*
Y1585D02*
D03*
Y1336D02*
D03*
Y1080D02*
D03*
X445Y2093D02*
D03*
Y1844D02*
D03*
D19*
X432Y572D02*
D03*
X445Y1588D02*
D03*
%TF.MD5,7F3D274A112D8A1136BCCCDC3DFBC732*%
M02*
